<?xml version="1.0" encoding="UTF-8"?>
<svg id="_图层_2" data-name="图层_2" xmlns="http://www.w3.org/2000/svg" viewBox="0 0 41.67 40.16">
  <defs>
    <style>
      .cls-1 {
        fill: #fff;
        fill-rule: evenodd;
      }
    </style>
  </defs>
  <g id="_图层_1-2" data-name="图层_1">
    <path class="cls-1" d="M.15,28.98c.85,5.52,2.17,8.47,3.58,9.65,1.31,1.11,2.48,1.52,5.62,1.52h19.43c1.48,0,4.29-.46,5.11-3.05.82-2.59,7.25-28.89,7.67-31.5.37-2.29-.12-5.35-3.58-5.59-2.67-.18-4.37,1.13-5.62,5.08-.95,3-3.18,11.22-4.53,16.23-.56,2.06-1.47,1.96-2.27,1.96H4.25c-1.95,0-4.96.16-4.11,5.69ZM4.94,34.91c1.12,2.65,2.53,2.46,4.45,2.46h17.81c3.15,0,4.34-1.27,4.95-3.44.61-2.17,5.39-20.94,6.43-25.56.85-3.77-.09-4.81-1.48-4.92-.82-.06-1.9.58-2.47,2.46-.46,1.51-3.72,13.38-4.96,17.91-.37,1.17-1.01,2.09-3.25,2.09-.89,0-19.94,0-20.47,0-1.15,0-2.51.27-2.68,1.55-.1.73.38,4.38,1.68,7.45Z"/>
  </g>
</svg>